# Blender v3.0.0 OBJ File: 'bod-dress.blend'
# www.blender.org
mtllib bod-dress.mtl
o arm_Cube.001
v 0.497217 4.349856 0.188836
v 0.583561 4.860320 0.010362
v 0.497217 4.349856 -0.189289
v 2.558506 4.839448 0.001225
v 1.517040 4.370709 0.220034
v 1.517040 4.810778 0.000000
v 1.517040 4.370709 -0.220034
v 2.558506 4.357383 0.242257
v 2.558506 4.357383 -0.239808
v 0.064267 4.834167 0.000000
v 2.785985 4.491183 -0.047692
v -0.497217 4.349856 0.188836
v -0.583561 4.860320 0.010362
v -0.497217 4.349856 -0.189289
v -2.558506 4.839448 0.001225
v -1.517040 4.370709 0.220034
v -1.517040 4.810778 0.000000
v -1.517040 4.370709 -0.220034
v -2.558506 4.357383 0.242257
v -2.558506 4.357383 -0.239808
v -0.064267 4.834167 0.000000
v -2.785985 4.491183 -0.047692
vt 0.000000 1.000000
vt 0.000000 1.000000
vt 0.000000 1.000000
vt 0.000000 1.000000
vt 0.000000 1.000000
vt 0.000000 1.000000
vt 0.000000 1.000000
vt 0.000000 1.000000
vt 0.000000 1.000000
vt 0.000000 1.000000
vt 0.000000 1.000000
vt 0.000000 1.000000
vt 0.000000 1.000000
vt 0.000000 1.000000
vt 0.000000 1.000000
vt 0.000000 1.000000
vt 0.000000 1.000000
vt 0.000000 1.000000
vt 0.000000 1.000000
vt 0.000000 1.000000
vt 0.000000 0.000000
vt 0.000000 0.000000
vn 0.0089 0.3629 -0.9318
vn -0.0134 0.4472 0.8943
vn -0.0365 0.4469 0.8938
vn 0.0204 -0.9998 0.0000
vn -0.0128 -0.9999 0.0000
vn -0.0113 0.4472 -0.8944
vn -0.0357 0.3352 0.9415
vn 0.0002 0.3642 -0.9313
vn 0.0278 0.3257 0.9451
vn -0.0361 0.4469 -0.8938
vn -0.0089 0.3629 -0.9318
vn 0.0134 0.4472 0.8943
vn 0.0365 0.4469 0.8938
vn -0.0204 -0.9998 0.0000
vn 0.0128 -0.9999 0.0000
vn 0.0113 0.4472 -0.8944
vn 0.0357 0.3352 0.9415
vn -0.0002 0.3642 -0.9313
vn -0.0278 0.3257 0.9451
vn 0.0361 0.4469 -0.8938
vn 0.6594 0.3362 0.6725
vn 0.5070 -0.8620 0.0000
vn 0.4417 0.4012 -0.8024
vn -0.6594 0.3362 0.6725
vn -0.5070 -0.8620 0.0000
vn -0.4417 0.4012 -0.8024
usemtl 8
s off
f 3/1/1 2/2/1 6/3/1
f 6/3/2 5/4/2 8/5/2
f 5/4/3 6/3/3 1/6/3
f 3/1/4 7/7/4 5/4/4
f 5/4/5 7/7/5 9/8/5
f 7/7/6 6/3/6 9/8/6
f 1/6/7 2/2/7 10/9/7
f 2/2/8 3/1/8 10/9/8
f 8/5/2 4/10/2 6/3/2
f 1/6/9 6/3/9 2/2/9
f 9/8/6 6/3/6 4/10/6
f 6/3/10 7/7/10 3/1/10
f 9/8/5 8/5/5 5/4/5
f 5/4/4 1/6/4 3/1/4
f 14/11/11 17/12/11 13/13/11
f 17/12/12 19/14/12 16/15/12
f 16/15/13 12/16/13 17/12/13
f 14/11/14 16/15/14 18/17/14
f 16/15/15 20/18/15 18/17/15
f 18/17/16 20/18/16 17/12/16
f 12/16/17 21/19/17 13/13/17
f 13/13/18 21/19/18 14/11/18
f 19/14/12 17/12/12 15/20/12
f 12/16/19 13/13/19 17/12/19
f 20/18/16 15/20/16 17/12/16
f 17/12/20 14/11/20 18/17/20
f 20/18/15 16/15/15 19/14/15
f 16/15/14 14/11/14 12/16/14
usemtl 15
f 4/10/21 8/5/21 11/21/21
f 9/8/22 11/21/22 8/5/22
f 4/10/23 11/21/23 9/8/23
f 15/20/24 22/22/24 19/14/24
f 20/18/25 19/14/25 22/22/25
f 15/20/26 20/18/26 22/22/26
o leg_Cube.002
v 0.423447 0.000000 0.570589
v 0.423447 0.509840 0.234678
v 0.114300 0.000000 -0.289831
v 0.130414 0.509840 -0.255058
v 0.154838 1.828766 -0.241451
v 0.423447 1.828766 0.207466
v 0.732595 0.000000 -0.289831
v 0.716480 0.509840 -0.255058
v 0.692057 1.828766 -0.241451
v 0.091933 2.987436 -0.019991
v 0.655568 2.987436 0.004946
v -0.423447 0.000000 0.570589
v -0.423447 0.509840 0.234678
v -0.114300 0.000000 -0.289831
v -0.130414 0.509840 -0.255058
v -0.154838 1.828766 -0.241451
v -0.423447 1.828766 0.207466
v -0.732595 0.000000 -0.289831
v -0.716480 0.509840 -0.255058
v -0.692057 1.828766 -0.241451
v -0.091933 2.987436 -0.019991
v -0.655568 2.987436 0.004946
vt 0.000000 1.000000
vt 0.000000 1.000000
vt 0.000000 1.000000
vt 0.000000 1.000000
vt 0.000000 1.000000
vt 0.000000 1.000000
vt 0.000000 1.000000
vt 0.000000 1.000000
vt 0.000000 1.000000
vt 0.000000 1.000000
vt 0.000000 1.000000
vt 0.000000 1.000000
vt 0.000000 1.000000
vt 0.000000 1.000000
vt 0.000000 1.000000
vt 0.000000 1.000000
vt 0.000000 1.000000
vt 0.000000 1.000000
vt 0.000000 1.000000
vt 0.000000 1.000000
vt 0.000000 1.000000
vt 0.000000 1.000000
vn -0.9186 0.2175 0.3300
vn 0.0000 0.0680 -0.9977
vn 0.9186 0.2175 0.3300
vn -0.8493 -0.1432 0.5082
vn 0.8581 0.0106 0.5134
vn 0.0000 0.0103 -0.9999
vn -0.8581 0.0106 0.5134
vn 0.0000 0.2080 -0.9781
vn 0.8552 -0.0819 0.5117
vn 0.0434 0.1898 -0.9809
vn 0.8581 -0.0079 0.5134
vn -0.8581 -0.0079 0.5134
vn -0.0435 0.1805 0.9826
vn 0.8493 -0.1432 0.5082
vn -0.8552 -0.0819 0.5117
vn -0.0434 0.1898 -0.9809
vn 0.0435 0.1805 0.9826
usemtl 5
s off
f 23/23/27 24/24/27 25/25/27
f 25/25/28 30/26/28 29/27/28
f 29/27/29 24/24/29 23/23/29
f 27/28/30 28/29/30 32/30/30
f 24/24/31 30/26/31 28/29/31
f 30/26/32 26/31/32 27/28/32
f 26/31/33 28/29/33 27/28/33
f 31/32/34 27/28/34 33/33/34
f 28/29/31 30/26/31 31/32/31
f 33/33/35 28/29/35 31/32/35
f 28/29/33 26/31/33 24/24/33
f 27/28/32 31/32/32 30/26/32
f 33/33/36 27/28/36 32/30/36
f 30/26/28 25/25/28 26/31/28
f 24/24/37 29/27/37 30/26/37
f 25/25/38 24/24/38 26/31/38
f 32/30/39 28/29/39 33/33/39
f 34/34/29 36/35/29 35/36/29
f 36/35/28 40/37/28 41/38/28
f 40/37/27 34/34/27 35/36/27
f 38/39/40 43/40/40 39/41/40
f 35/36/33 39/41/33 41/38/33
f 41/38/32 38/39/32 37/42/32
f 37/42/31 38/39/31 39/41/31
f 42/43/34 44/44/34 38/39/34
f 39/41/33 42/43/33 41/38/33
f 44/44/41 42/43/41 39/41/41
f 39/41/31 35/36/31 37/42/31
f 38/39/32 41/38/32 42/43/32
f 44/44/42 43/40/42 38/39/42
f 41/38/28 37/42/28 36/35/28
f 35/36/38 41/38/38 40/37/38
f 36/35/37 37/42/37 35/36/37
f 43/40/43 44/44/43 39/41/43
o dress_Cube.005
v 0.000000 5.706466 -0.096534
v 0.877703 2.160096 -0.408984
v 0.877703 2.160096 0.406594
v 0.000000 2.160096 -0.852637
v 0.000000 2.140979 0.859204
v 0.569958 4.238743 -0.176726
v 0.000000 4.238743 0.464501
v 0.569958 4.238743 0.207813
v 0.000000 4.238743 -0.461387
v -0.877703 2.160096 -0.408984
v -0.877703 2.160096 0.406594
v -0.569958 4.238743 -0.176726
v -0.569958 4.238743 0.207813
vt 0.000000 1.000000
vt 0.000000 1.000000
vt 0.000000 1.000000
vt 0.000000 1.000000
vt 0.000000 1.000000
vt 0.000000 1.000000
vt 0.000000 1.000000
vt 0.000000 1.000000
vt 0.000000 1.000000
vt 0.000000 1.000000
vt 0.000000 1.000000
vt 0.000000 1.000000
vt 0.000000 1.000000
vn 0.3878 0.3291 0.8610
vn 0.9322 0.3620 0.0000
vn 0.4362 0.2171 -0.8733
vn 0.4449 0.1657 -0.8801
vn 0.9892 0.1465 0.0000
vn 0.4492 0.1652 0.8780
vn 0.4062 0.1464 0.9020
vn 0.4408 0.1639 -0.8825
vn -0.3878 0.3291 0.8610
vn -0.9322 0.3620 0.0000
vn -0.4362 0.2171 -0.8733
vn -0.4449 0.1657 -0.8801
vn -0.9892 0.1465 0.0000
vn -0.4492 0.1652 0.8780
vn -0.4062 0.1464 0.9020
vn -0.4408 0.1639 -0.8825
usemtl 8
s off
f 52/45/44 45/46/44 51/47/44
f 50/48/45 45/46/45 52/45/45
f 53/49/46 45/46/46 50/48/46
f 48/50/47 53/49/47 46/51/47
f 46/51/48 50/48/48 52/45/48
f 47/52/49 51/47/49 49/53/49
f 51/47/50 47/52/50 52/45/50
f 52/45/48 47/52/48 46/51/48
f 46/51/51 53/49/51 50/48/51
f 57/54/52 51/47/52 45/46/52
f 56/55/53 57/54/53 45/46/53
f 53/49/54 56/55/54 45/46/54
f 48/50/55 54/56/55 53/49/55
f 54/56/56 57/54/56 56/55/56
f 55/57/57 49/53/57 51/47/57
f 51/47/58 57/54/58 55/57/58
f 57/54/56 54/56/56 55/57/56
f 54/56/59 56/55/59 53/49/59
o head_Cube.004
v 0.000000 5.324478 -1.142157
v 0.691057 5.334680 -0.778538
v 0.563366 5.047732 0.680552
v 1.095591 7.601637 0.822763
v 0.000000 8.039757 1.505876
v 0.000000 4.821830 1.174255
v 1.130281 6.181338 -0.219469
v 1.029332 5.957438 1.114574
v 0.000000 5.969477 1.715642
v -0.691057 5.334680 -0.778538
v -0.563366 5.047732 0.680552
v -1.095591 7.601637 0.822763
v -1.130281 6.181338 -0.219469
v -1.029332 5.957438 1.114574
vt 0.000000 1.000000
vt 0.000000 1.000000
vt 0.000000 1.000000
vt 0.000000 1.000000
vt 0.000000 1.000000
vt 0.000000 1.000000
vt 0.000000 1.000000
vt 0.000000 1.000000
vt 0.000000 1.000000
vt 0.000000 1.000000
vt 0.000000 1.000000
vt 0.000000 1.000000
vt 0.000000 1.000000
vt 0.000000 1.000000
vn 0.1104 -0.9770 -0.1825
vn 0.9971 -0.0276 0.0708
vn 0.6585 -0.5711 0.4901
vn 0.8907 -0.4545 -0.0114
vn 0.5031 0.0871 0.8598
vn 0.4635 -0.3780 0.8014
vn 0.5600 0.1228 0.8193
vn 0.8916 -0.4527 -0.0085
vn 0.4362 0.3272 -0.8382
vn -0.1104 -0.9770 -0.1825
vn -0.9971 -0.0276 0.0708
vn -0.6585 -0.5711 0.4901
vn -0.8907 -0.4545 -0.0114
vn -0.5031 0.0871 0.8598
vn 0.0000 -0.9093 -0.4161
vn -0.4635 -0.3780 0.8014
vn -0.5600 0.1228 0.8193
vn -0.8916 -0.4527 -0.0085
vn -0.4362 0.3272 -0.8382
vn 0.0000 -0.9887 -0.1501
usemtl 15
s off
f 59/58/60 60/59/60 58/60/60
f 64/61/61 61/62/61 65/63/61
f 60/59/62 65/63/62 63/64/62
f 59/58/63 64/61/63 60/59/63
f 66/65/64 65/63/64 62/66/64
f 63/64/65 65/63/65 66/65/65
f 62/66/66 65/63/66 61/62/66
f 60/59/67 64/61/67 65/63/67
f 59/58/68 58/60/68 64/61/68
f 67/67/69 58/60/69 68/68/69
f 70/69/70 71/70/70 69/71/70
f 68/68/71 63/64/71 71/70/71
f 67/67/72 68/68/72 70/69/72
f 66/65/73 62/66/73 71/70/73
f 68/68/74 60/59/74 63/64/74
f 63/64/75 66/65/75 71/70/75
f 62/66/76 69/71/76 71/70/76
f 68/68/77 71/70/77 70/69/77
f 67/67/78 70/69/78 58/60/78
f 58/60/79 60/59/79 68/68/79
o face_Plane
v -0.000000 5.905313 1.817656
v 1.588231 5.905313 1.337306
v -0.000000 7.273039 1.817656
v 1.614149 7.273039 1.337306
v -0.000000 4.734811 1.632246
v 1.378791 4.734811 1.296148
v -0.000000 8.659628 1.559991
v 1.594721 8.659628 1.061807
v -1.588231 5.905313 1.337306
v -1.614149 7.273039 1.337306
v -1.378791 4.734811 1.296148
v -1.594721 8.659628 1.061807
vt 1.000000 0.710938
vt 0.812500 0.859375
vt 0.812500 0.710938
vt 1.000000 0.562500
vt 1.000000 0.859375
vt 0.812500 1.000000
vt 0.625000 0.710938
vt 0.625000 0.562500
vt 0.625000 0.859375
vt 0.812500 0.562500
vt 1.000000 1.000000
vt 0.625000 1.000000
vn 0.2895 0.0000 0.9572
vn 0.2884 -0.0851 0.9537
vn 0.2808 0.1753 0.9436
vn -0.2895 0.0000 0.9572
vn -0.2884 -0.0851 0.9537
vn -0.2808 0.1753 0.9436
vn 0.2852 -0.0054 0.9584
vn 0.2341 -0.1521 0.9602
vn 0.2927 0.1903 0.9371
vn -0.2852 -0.0054 0.9584
vn -0.2341 -0.1521 0.9602
vn -0.2927 0.1903 0.9371
usemtl texture
s off
f 73/72/80 74/73/80 72/74/80
f 72/74/81 77/75/81 73/72/81
f 75/76/82 78/77/82 74/73/82
f 74/73/83 80/78/83 72/74/83
f 82/79/84 72/74/84 80/78/84
f 78/77/85 81/80/85 74/73/85
f 73/72/86 75/76/86 74/73/86
f 72/74/87 76/81/87 77/75/87
f 75/76/88 79/82/88 78/77/88
f 74/73/89 81/80/89 80/78/89
f 82/79/90 76/81/90 72/74/90
f 78/77/91 83/83/91 81/80/91
o hair_Cube
v 0.285425 7.639845 1.705046
v -0.005652 8.692380 1.338658
v -0.005652 4.592942 -1.245672
v -0.005652 8.473918 -1.106280
v 1.435203 6.445199 1.061427
v 1.079412 8.373615 1.093326
v 1.304087 5.252999 -0.495256
v 1.063827 8.047424 -0.903450
v -0.005652 8.759647 0.223547
v 1.350964 8.067595 -0.057235
v 0.669413 7.024149 1.599597
v 0.768539 8.615083 -0.057235
v -0.005652 8.179463 1.672308
v -0.005652 6.808459 -1.715034
v 1.435158 6.846186 -1.032433
v 1.273779 7.332789 1.523408
v 1.665457 7.136611 -0.056537
v 0.931081 6.680159 -1.536203
v -0.005652 7.819096 -0.303343
v -1.311766 6.188410 1.191716
v -1.090717 8.373615 1.093326
v -1.315391 5.252999 -0.495256
v -1.075132 8.047424 -0.903450
v -1.362269 8.067595 -0.057235
v -0.293388 6.776919 1.683761
v -0.779843 8.615083 -0.057235
v -1.446463 6.846186 -1.032433
v -1.285083 7.164207 1.568894
v -1.676761 7.136611 -0.056537
v -0.942386 6.680159 -1.536203
vt 0.000000 1.000000
vt 0.000000 1.000000
vt 0.000000 1.000000
vt 0.000000 1.000000
vt 0.000000 1.000000
vt 0.000000 1.000000
vt 0.000000 1.000000
vt 0.000000 1.000000
vt 0.000000 1.000000
vt 0.000000 1.000000
vt 0.000000 1.000000
vt 0.000000 1.000000
vt 0.000000 1.000000
vt 0.000000 1.000000
vt 0.000000 1.000000
vt 0.000000 1.000000
vt 0.000000 1.000000
vt 0.000000 1.000000
vt 0.000000 1.000000
vt 0.000000 1.000000
vt 0.000000 1.000000
vt 0.000000 1.000000
vt 0.000000 1.000000
vt 0.000000 1.000000
vt 0.000000 1.000000
vt 0.000000 1.000000
vt 0.000000 1.000000
vt 0.000000 1.000000
vt 0.000000 1.000000
vt 0.000000 1.000000
vn 0.9001 0.3110 -0.3050
vn 0.6334 0.2735 -0.7239
vn 0.9443 0.2598 0.2019
vn 0.3701 0.4130 0.8321
vn 0.4039 0.8187 -0.4082
vn 0.2305 0.9630 0.1398
vn 0.6846 0.7282 -0.0321
vn 0.6645 0.7069 -0.2423
vn 0.2240 0.3913 -0.8926
vn 0.3102 -0.3939 0.8652
vn 0.1595 -0.0692 0.9848
vn 0.9760 -0.2046 0.0745
vn 0.5947 -0.3665 -0.7156
vn 0.9000 0.3038 -0.3126
vn 0.9384 0.3171 0.1371
vn 0.3301 0.5147 0.7913
vn 0.1058 0.9722 -0.2089
vn 0.2934 0.9543 0.0576
vn 0.3005 0.3274 -0.8958
vn 0.1564 -0.2047 -0.9662
vn 0.2325 0.1834 0.9552
vn 0.9707 0.0548 0.2338
vn 0.7235 -0.2733 -0.6339
vn 0.9719 -0.1430 -0.1868
vn -0.3783 -0.2595 0.8886
vn -0.8021 -0.4396 0.4042
vn -0.9001 0.3110 -0.3050
vn -0.6334 0.2735 -0.7239
vn -0.9447 0.2397 0.2236
vn -0.3779 0.3908 0.8393
vn -0.4039 0.8187 -0.4082
vn -0.2305 0.9630 0.1398
vn -0.6846 0.7282 -0.0321
vn -0.6645 0.7069 -0.2423
vn -0.2240 0.3913 -0.8926
vn -0.2396 -0.3443 0.9078
vn -0.0988 0.0418 0.9942
vn -0.9693 -0.2141 0.1208
vn -0.5947 -0.3665 -0.7156
vn -0.9000 0.3038 -0.3126
vn -0.9384 0.3171 0.1371
vn -0.3301 0.5147 0.7913
vn -0.1058 0.9722 -0.2089
vn -0.2934 0.9543 0.0576
vn -0.3005 0.3274 -0.8958
vn -0.1564 -0.2047 -0.9662
vn -0.0899 0.0119 0.9959
vn -0.9699 -0.0642 0.2348
vn -0.7235 -0.2733 -0.6339
vn -0.9719 -0.1430 -0.1868
vn 0.3783 -0.2595 0.8886
vn 0.8546 -0.4549 0.2504
usemtl 4
s off
f 91/84/92 100/85/92 98/86/92
f 101/87/93 91/84/93 98/86/93
f 100/85/94 89/88/94 99/89/94
f 89/88/95 96/90/95 99/89/95
f 87/91/96 95/92/96 91/84/96
f 92/93/97 89/88/97 95/92/97
f 95/92/98 89/88/98 93/94/98
f 91/84/99 95/92/99 93/94/99
f 97/95/100 91/84/100 101/87/100
f 99/89/101 94/96/101 88/97/101
f 99/89/102 84/98/102 94/96/102
f 100/85/103 88/97/103 90/99/103
f 101/87/104 90/99/104 86/100/104
f 91/84/105 93/94/105 100/85/105
f 100/85/106 93/94/106 89/88/106
f 89/88/107 85/101/107 96/90/107
f 87/91/108 92/93/108 95/92/108
f 92/93/109 85/101/109 89/88/109
f 97/95/110 87/91/110 91/84/110
f 97/95/111 101/87/111 86/100/111
f 99/89/112 96/90/112 84/98/112
f 100/85/113 99/89/113 88/97/113
f 101/87/114 98/86/114 90/99/114
f 98/86/115 100/85/115 90/99/115
f 86/100/116 90/99/116 102/102/116
f 90/99/117 88/97/117 102/102/117
f 106/103/118 110/104/118 112/105/118
f 113/106/119 110/104/119 106/103/119
f 112/105/120 111/107/120 104/108/120
f 104/108/121 111/107/121 96/90/121
f 87/91/122 106/103/122 109/109/122
f 92/93/123 109/109/123 104/108/123
f 109/109/124 107/110/124 104/108/124
f 106/103/125 107/110/125 109/109/125
f 97/95/126 113/106/126 106/103/126
f 111/107/127 103/111/127 108/112/127
f 111/107/128 108/112/128 84/98/128
f 112/105/129 105/113/129 103/111/129
f 113/106/130 86/100/130 105/113/130
f 106/103/131 112/105/131 107/110/131
f 112/105/132 104/108/132 107/110/132
f 104/108/133 96/90/133 85/101/133
f 87/91/134 109/109/134 92/93/134
f 92/93/135 104/108/135 85/101/135
f 97/95/136 106/103/136 87/91/136
f 97/95/137 86/100/137 113/106/137
f 111/107/138 84/98/138 96/90/138
f 112/105/139 103/111/139 111/107/139
f 113/106/140 105/113/140 110/104/140
f 110/104/141 105/113/141 112/105/141
f 86/100/142 102/102/142 105/113/142
f 105/113/143 102/102/143 103/111/143
