# Blender v3.0.0 OBJ File: 'bod-shirt.blend'
# www.blender.org
mtllib bod-shirt.mtl
o shirt_Cube
v 0.000000 5.323950 -0.115468
v 0.776955 2.973341 -0.298773
v 0.776955 2.973341 0.297994
v 0.000000 2.973341 -0.623399
v 0.000000 2.961647 0.629173
v 0.696707 4.238743 -0.211389
v 0.000000 4.238743 0.555608
v 0.696707 4.238743 0.248573
v 0.000000 4.238743 -0.551883
v 0.000000 2.546843 -0.609810
v 0.000000 2.546843 0.558490
v 0.726962 2.546843 -0.267342
v 0.726962 2.546843 0.266563
v -0.776955 2.973341 -0.298773
v -0.776955 2.973341 0.297994
v -0.696707 4.238743 -0.211389
v -0.696707 4.238743 0.248573
v -0.726962 2.546843 -0.267342
v -0.726962 2.546843 0.266563
vt 0.500000 0.750000
vt 0.625000 1.000000
vt 0.500000 1.000000
vt 0.375000 0.500000
vt 0.375000 0.750000
vt 0.375000 0.750000
vt 0.500000 0.500000
vt 0.625000 0.750000
vt 0.500000 0.250000
vt 0.625000 0.500000
vt 0.375000 0.250000
vt 0.375000 1.000000
vt 0.375000 1.000000
vt 0.375000 0.250000
vt 0.375000 0.500000
vt 0.500000 0.750000
vt 0.375000 0.500000
vt 0.375000 0.750000
vt 0.375000 0.750000
vt 0.500000 0.500000
vt 0.375000 0.500000
vn 0.3510 0.4925 0.7964
vn 0.9932 -0.1164 0.0000
vn 0.8415 0.5402 0.0000
vn 0.4130 0.3398 -0.8450
vn 0.3850 0.0521 -0.9214
vn 0.9980 0.0633 0.0000
vn 0.3909 0.0529 0.9189
vn 0.3703 -0.1114 0.9222
vn 0.3854 -0.0294 -0.9223
vn 0.4025 0.0612 0.9134
vn 0.3894 -0.1547 0.9080
vn 0.4373 0.0895 -0.8948
vn 0.4233 -0.1158 -0.8986
vn -0.3510 0.4925 0.7964
vn -0.9932 -0.1164 0.0000
vn -0.8415 0.5402 0.0000
vn -0.4130 0.3398 -0.8450
vn -0.3850 0.0521 -0.9214
vn -0.9980 0.0633 0.0000
vn -0.3909 0.0529 0.9189
vn -0.3703 -0.1114 0.9222
vn -0.3854 -0.0294 -0.9223
vn -0.4025 0.0612 0.9134
vn -0.3894 -0.1547 0.9080
vn -0.4373 0.0895 -0.8948
vn -0.4233 -0.1158 -0.8986
usemtl Material
s off
f 8/1/1 1/2/1 7/3/1
f 2/4/2 3/5/2 13/6/2
f 6/7/3 1/8/3 8/1/3
f 9/9/4 1/10/4 6/7/4
f 4/11/5 9/9/5 2/4/5
f 2/4/6 8/1/6 3/5/6
f 3/5/7 7/3/7 5/12/7
f 3/5/8 11/13/8 13/6/8
f 4/11/9 2/4/9 10/14/9
f 7/3/10 3/5/10 8/1/10
f 11/13/11 3/5/11 5/12/11
f 2/4/12 9/9/12 6/7/12
f 10/14/13 2/4/13 12/15/13
f 13/6/2 12/15/2 2/4/2
f 8/1/6 2/4/6 6/7/6
f 17/16/14 7/3/14 1/2/14
f 14/17/15 19/18/15 15/19/15
f 16/20/16 17/16/16 1/8/16
f 9/9/17 16/20/17 1/10/17
f 4/11/18 14/17/18 9/9/18
f 14/17/19 15/19/19 17/16/19
f 15/19/20 5/12/20 7/3/20
f 15/19/21 19/18/21 11/13/21
f 4/11/22 10/14/22 14/17/22
f 7/3/23 17/16/23 15/19/23
f 11/13/24 5/12/24 15/19/24
f 14/17/25 16/20/25 9/9/25
f 10/14/26 18/21/26 14/17/26
f 19/18/15 14/17/15 18/21/15
f 17/16/19 16/20/19 14/17/19
o arm_Cube.001
v 0.606774 4.349856 0.250818
v 0.583561 4.860320 0.010362
v 0.606774 4.349856 -0.251271
v 2.564201 4.874043 0.000000
v 1.517040 4.370709 0.220034
v 1.517040 4.810778 0.000000
v 1.517040 4.370709 -0.220034
v 2.564201 4.339076 0.267484
v 2.564201 4.339076 -0.267484
v 0.064267 4.834167 0.000000
v 2.742713 4.575872 -0.044018
v -0.606774 4.349856 0.250818
v -0.583561 4.860320 0.010362
v -0.606774 4.349856 -0.251271
v -2.564201 4.874043 0.000000
v -1.517040 4.370709 0.220034
v -1.517040 4.810778 0.000000
v -1.517040 4.370709 -0.220034
v -2.564201 4.339076 0.267484
v -2.564201 4.339076 -0.267484
v -0.064267 4.834167 0.000000
v -2.742713 4.575872 -0.044018
vt 0.375000 0.250000
vt 0.625000 0.250000
vt 0.625000 0.500000
vt 0.625000 0.750000
vt 0.375000 0.750000
vt 0.375000 0.750000
vt 0.375000 1.000000
vt 0.125000 0.500000
vt 0.375000 0.500000
vt 0.375000 0.500000
vt 0.375000 0.000000
vt 0.463641 0.169320
vt 0.625000 0.750000
vt 0.625000 1.000000
vt 0.625000 0.500000
vt 0.125000 0.750000
vt 0.375000 0.250000
vt 0.625000 0.500000
vt 0.625000 0.250000
vt 0.625000 0.750000
vt 0.375000 0.750000
vt 0.375000 0.750000
vt 0.375000 1.000000
vt 0.125000 0.500000
vt 0.375000 0.500000
vt 0.375000 0.500000
vt 0.375000 0.000000
vt 0.463641 0.169320
vt 0.625000 0.750000
vt 0.625000 1.000000
vt 0.625000 0.500000
vt 0.125000 0.750000
vn 0.0144 0.4566 -0.8896
vn -0.0270 0.4471 0.8941
vn 0.0200 0.4471 0.8942
vn 0.0229 -0.9997 0.0000
vn -0.0302 -0.9995 0.0000
vn -0.0270 0.4471 -0.8941
vn -0.0394 0.4243 0.9046
vn -0.0052 0.4559 -0.8900
vn 0.0327 0.4271 0.9036
vn 0.0204 0.4471 -0.8942
vn -0.0144 0.4566 -0.8896
vn 0.0270 0.4471 0.8941
vn -0.0200 0.4471 0.8942
vn -0.0229 -0.9997 0.0000
vn 0.0302 -0.9995 0.0000
vn 0.0270 0.4471 -0.8941
vn 0.0394 0.4243 0.9046
vn 0.0052 0.4559 -0.8900
vn -0.0327 0.4271 0.9036
vn -0.0204 0.4471 -0.8942
usemtl None
s off
f 22/22/27 21/23/27 25/24/27
f 25/25/28 24/26/28 27/27/28
f 24/26/29 25/25/29 20/28/29
f 22/29/30 26/30/30 24/26/30
f 24/26/31 26/30/31 28/31/31
f 26/30/32 25/24/32 28/31/32
f 20/32/33 21/23/33 29/33/33
f 21/23/34 22/22/34 29/33/34
f 27/27/28 23/34/28 25/25/28
f 20/28/35 25/25/35 21/35/35
f 28/31/32 25/24/32 23/36/32
f 25/24/36 26/30/36 22/22/36
f 28/31/31 27/27/31 24/26/31
f 24/26/30 20/37/30 22/29/30
f 33/38/37 36/39/37 32/40/37
f 36/41/38 38/42/38 35/43/38
f 35/43/39 31/44/39 36/41/39
f 33/45/40 35/43/40 37/46/40
f 35/43/41 39/47/41 37/46/41
f 37/46/42 39/47/42 36/39/42
f 31/48/43 40/49/43 32/40/43
f 32/40/44 40/49/44 33/38/44
f 38/42/38 36/41/38 34/50/38
f 31/44/45 32/51/45 36/41/45
f 39/47/42 34/52/42 36/39/42
f 36/39/46 33/38/46 37/46/46
f 39/47/41 35/43/41 38/42/41
f 35/43/40 33/45/40 31/53/40
o leg_Cube.002
v 0.424637 0.000000 0.798303
v 0.424637 0.509840 0.341927
v 0.071092 0.000000 -0.370685
v 0.089521 0.509840 -0.323441
v 0.117452 1.828766 -0.304955
v 0.424637 1.828766 0.304955
v 0.778182 0.000000 -0.370685
v 0.759753 0.509840 -0.323441
v 0.731822 1.828766 -0.304955
v 0.045513 2.987436 -0.335545
v 0.424637 2.987436 0.417678
v 0.690092 2.987436 -0.301665
v -0.424637 0.000000 0.798303
v -0.424637 0.509840 0.341927
v -0.071092 0.000000 -0.370685
v -0.089521 0.509840 -0.323441
v -0.117452 1.828766 -0.304955
v -0.424637 1.828766 0.304955
v -0.778182 0.000000 -0.370685
v -0.759753 0.509840 -0.323441
v -0.731822 1.828766 -0.304955
v -0.045513 2.987436 -0.335545
v -0.424637 2.987436 0.417678
v -0.690092 2.987436 -0.301665
vt 0.375000 0.000000
vt 0.625000 0.000000
vt 0.375000 0.250000
vt 0.625000 0.500000
vt 0.375000 0.500000
vt 0.625000 0.750000
vt 0.375000 0.750000
vt 0.625000 0.250000
vt 0.625000 0.000000
vt 0.625000 0.250000
vt 0.125000 0.500000
vt 0.125000 0.750000
vt 0.625000 0.750000
vt 0.625000 0.250000
vt 0.625000 0.500000
vt 0.625000 0.500000
vt 0.625000 0.750000
vt 0.625000 0.000000
vt 0.375000 0.000000
vt 0.375000 0.250000
vt 0.625000 0.000000
vt 0.375000 0.500000
vt 0.625000 0.500000
vt 0.375000 0.750000
vt 0.625000 0.750000
vt 0.625000 0.250000
vt 0.625000 0.250000
vt 0.625000 0.000000
vt 0.125000 0.500000
vt 0.125000 0.750000
vt 0.625000 0.750000
vt 0.625000 0.250000
vt 0.625000 0.500000
vt 0.625000 0.500000
vt 0.625000 0.750000
vt 0.625000 0.000000
vn -0.9266 0.2508 0.2802
vn 0.0000 0.0923 -0.9957
vn 0.9266 0.2508 0.2802
vn -0.8923 -0.0435 0.4494
vn 0.0000 -1.0000 0.0000
vn 0.8930 0.0126 0.4498
vn 0.0000 0.0140 -0.9999
vn -0.8930 0.0126 0.4498
vn 0.0000 0.0028 -1.0000
vn 0.9376 -0.0337 0.3460
vn 0.8927 0.0309 0.4496
vn -0.8924 -0.0437 0.4492
vn 0.0525 -0.0231 -0.9984
vn 0.8931 -0.0094 0.4498
vn -0.8931 -0.0094 0.4498
vn 0.8923 -0.0435 0.4494
vn -0.9376 -0.0337 0.3460
vn -0.8927 0.0309 0.4496
vn 0.8924 -0.0437 0.4492
vn -0.0525 -0.0231 -0.9984
usemtl None
s off
f 42/54/47 43/55/47 44/56/47
f 44/56/48 49/57/48 48/58/48
f 48/58/49 43/59/49 42/60/49
f 46/61/50 47/62/50 51/63/50
f 44/64/51 48/58/51 42/65/51
f 43/59/52 49/57/52 47/66/52
f 49/57/53 45/67/53 46/61/53
f 45/67/54 47/62/54 46/61/54
f 50/68/55 46/61/55 53/69/55
f 47/66/56 53/69/56 52/70/56
f 47/66/52 49/57/52 50/68/52
f 53/69/57 47/66/57 50/68/57
f 51/63/58 47/62/58 52/71/58
f 47/62/54 45/67/54 43/55/54
f 46/61/53 50/68/53 49/57/53
f 53/69/59 46/61/59 51/63/59
f 49/57/48 44/56/48 45/67/48
f 43/59/60 48/58/60 49/57/60
f 44/56/61 43/55/61 45/67/61
f 54/72/49 56/73/49 55/74/49
f 56/73/48 60/75/48 61/76/48
f 60/75/47 54/77/47 55/78/47
f 58/79/62 63/80/62 59/81/62
f 56/82/51 54/83/51 60/75/51
f 55/78/54 59/84/54 61/76/54
f 61/76/53 58/79/53 57/85/53
f 57/85/52 58/79/52 59/81/52
f 62/86/55 65/87/55 58/79/55
f 59/84/63 64/88/63 65/87/63
f 59/84/54 62/86/54 61/76/54
f 65/87/64 62/86/64 59/84/64
f 63/80/65 64/89/65 59/81/65
f 59/81/52 55/74/52 57/85/52
f 58/79/53 61/76/53 62/86/53
f 65/87/66 63/80/66 58/79/66
f 61/76/48 57/85/48 56/73/48
f 55/78/61 61/76/61 60/75/61
f 56/73/60 57/85/60 55/74/60
